<svg width="1645" height="400" viewBox="0 0 1645 400" fill="none" xmlns="http://www.w3.org/2000/svg">
<path fill-rule="evenodd" clip-rule="evenodd" d="M242.653 26.0859C242.714 26.3909 242.545 26.8959 242.249 27.4159C241.93 27.9779 241.7 28.5979 241.483 29.2119C241.27 29.8129 240.906 30.2429 240.39 30.6249C239.555 31.2439 238.694 31.7799 237.754 32.2389C237.017 32.5979 236.252 32.6839 235.497 32.8369C234.529 33.0309 233.529 33.0439 232.537 33.0489C232.093 33.0519 231.683 32.9749 231.269 32.7919C230.916 32.6349 230.517 32.5289 230.132 32.5039C229.18 32.4449 228.504 31.9799 227.966 31.2289C227.436 30.4899 226.903 29.7499 226.32 29.0529C226.035 28.7119 225.986 28.3589 226.003 27.9619C226.024 27.4419 226.095 26.9209 226.074 26.4049C226.043 25.6479 226.29 24.9449 226.487 24.2479C226.683 23.5539 226.762 22.7789 227.352 22.2449C227.314 21.4639 227.917 21.1459 228.416 20.7409C228.683 20.5229 228.899 20.2419 229.143 19.9939C229.702 19.4239 230.369 19.0459 231.146 18.8639C231.815 18.7069 232.341 18.1759 233.064 18.1449C233.757 18.1149 234.448 18.0289 235.141 18.0009C235.348 17.9919 235.58 18.0509 235.763 18.1499C236.195 18.3849 236.643 18.5109 237.135 18.5369C237.914 18.5779 238.419 19.2199 239.106 19.4739C239.304 19.5459 239.462 19.7209 239.645 19.8369C240.047 20.0899 240.57 20.2499 240.83 20.6039C241.228 21.1499 241.452 21.8239 241.737 22.4499C241.808 22.6049 241.78 22.8269 241.882 22.9449C242.243 23.3629 242.313 23.8959 242.459 24.3849C242.593 24.8339 242.575 25.3279 242.653 26.0859Z" fill="#FFCD2F"/>
<path fill-rule="evenodd" clip-rule="evenodd" d="M1479.99 4.29844C1480.02 4.46058 1479.94 4.72904 1479.8 5.00547C1479.65 5.30423 1479.54 5.63382 1479.43 5.96022C1479.33 6.27971 1479.16 6.50829 1478.91 6.71136C1478.51 7.04042 1478.09 7.32536 1477.64 7.56936C1477.29 7.7602 1476.92 7.80592 1476.56 7.88726C1476.09 7.99039 1475.61 7.9973 1475.14 7.99996C1474.92 8.00155 1474.73 7.96062 1474.53 7.86333C1474.36 7.77987 1474.17 7.72352 1473.98 7.71023C1473.53 7.67887 1473.2 7.43168 1472.94 7.03245C1472.69 6.6396 1472.43 6.24622 1472.15 5.87569C1472.02 5.69442 1471.99 5.50676 1472 5.29572C1472.01 5.01929 1472.05 4.74233 1472.04 4.46802C1472.02 4.0656 1472.14 3.69189 1472.23 3.32137C1472.33 2.95244 1472.37 2.54045 1472.65 2.25658C1472.63 1.8414 1472.92 1.67235 1473.16 1.45706C1473.29 1.34117 1473.39 1.19179 1473.51 1.05995C1473.78 0.756942 1474.1 0.555998 1474.47 0.459248C1474.79 0.375787 1475.04 0.0935088 1475.39 0.0770293C1475.72 0.0610814 1476.06 0.015364 1476.39 0.000479322C1476.49 -0.00430505 1476.6 0.0270592 1476.69 0.0796873C1476.89 0.204613 1477.11 0.271594 1477.35 0.285415C1477.72 0.307211 1477.96 0.648496 1478.29 0.783522C1478.39 0.821797 1478.46 0.914827 1478.55 0.976492C1478.74 1.11099 1478.99 1.19604 1479.12 1.38423C1479.31 1.67448 1479.42 2.03278 1479.55 2.36556C1479.59 2.44795 1479.57 2.56597 1479.62 2.6287C1479.8 2.8509 1479.83 3.13425 1479.9 3.3942C1479.97 3.63288 1479.96 3.89549 1479.99 4.29844Z" fill="#17BD37"/>
<path fill-rule="evenodd" clip-rule="evenodd" d="M7.99399 262.298C8.02328 262.461 7.94215 262.729 7.80006 263.005C7.64693 263.304 7.53652 263.634 7.43235 263.96C7.3301 264.28 7.15537 264.508 6.90767 264.711C6.50684 265.04 6.09353 265.325 5.64229 265.569C5.2885 265.76 4.92128 265.806 4.55885 265.887C4.09417 265.99 3.61413 265.997 3.13794 266C2.9248 266.002 2.72799 265.961 2.52925 265.863C2.3598 265.78 2.16826 265.724 1.98345 265.71C1.52645 265.679 1.20195 265.432 0.943687 265.032C0.689267 264.64 0.433408 264.246 0.153546 263.876C0.0167352 263.694 -0.00678659 263.507 0.00137404 263.296C0.0114548 263.019 0.0455375 262.742 0.0354567 262.468C0.0205755 262.066 0.139145 261.692 0.233712 261.321C0.327799 260.952 0.365722 260.54 0.648944 260.257C0.630703 259.841 0.920165 259.672 1.1597 259.457C1.28787 259.341 1.39156 259.192 1.50869 259.06C1.77703 258.757 2.09722 258.556 2.47021 258.459C2.79135 258.376 3.04385 258.094 3.39092 258.077C3.72358 258.061 4.05529 258.015 4.38795 258C4.48732 257.996 4.59869 258.027 4.68654 258.08C4.89391 258.205 5.10897 258.272 5.34515 258.285C5.7191 258.307 5.96152 258.648 6.2913 258.784C6.38635 258.822 6.46219 258.915 6.55004 258.976C6.74302 259.111 6.99408 259.196 7.11889 259.384C7.30994 259.674 7.41747 260.033 7.55428 260.366C7.58836 260.448 7.57492 260.566 7.62388 260.629C7.79718 260.851 7.83078 261.134 7.90087 261.394C7.96519 261.633 7.95655 261.895 7.99399 262.298Z" fill="#32BBD2"/>
<path fill-rule="evenodd" clip-rule="evenodd" d="M1644.99 393.06C1645.04 393.364 1644.89 393.867 1644.63 394.385C1644.34 394.945 1644.13 395.563 1643.94 396.175C1643.74 396.774 1643.42 397.203 1642.95 397.584C1642.2 398.201 1641.43 398.735 1640.58 399.193C1639.92 399.55 1639.23 399.636 1638.55 399.789C1637.68 399.982 1636.78 399.995 1635.88 400C1635.48 400.003 1635.12 399.926 1634.74 399.744C1634.42 399.587 1634.07 399.482 1633.72 399.457C1632.86 399.398 1632.25 398.934 1631.77 398.186C1631.29 397.449 1630.81 396.712 1630.29 396.017C1630.03 395.677 1629.99 395.325 1630 394.929C1630.02 394.411 1630.09 393.892 1630.07 393.378C1630.04 392.623 1630.26 391.922 1630.44 391.228C1630.61 390.536 1630.69 389.763 1631.22 389.231C1631.18 388.453 1631.73 388.136 1632.17 387.732C1632.41 387.515 1632.61 387.235 1632.83 386.987C1633.33 386.419 1633.93 386.042 1634.63 385.861C1635.23 385.705 1635.71 385.175 1636.36 385.144C1636.98 385.115 1637.6 385.029 1638.23 385.001C1638.41 384.992 1638.62 385.051 1638.79 385.149C1639.18 385.384 1639.58 385.509 1640.02 385.535C1640.72 385.576 1641.18 386.216 1641.8 386.469C1641.97 386.541 1642.12 386.715 1642.28 386.831C1642.64 387.083 1643.11 387.243 1643.35 387.595C1643.71 388.14 1643.91 388.811 1644.16 389.435C1644.23 389.59 1644.2 389.811 1644.29 389.929C1644.62 390.345 1644.68 390.877 1644.81 391.364C1644.93 391.812 1644.92 392.304 1644.99 393.06Z" fill="#F26AAE"/>
</svg>
